<svg width="19" height="15" viewBox="0 0 19 15" fill="none" xmlns="http://www.w3.org/2000/svg">
<path d="M16.1228 1.54766C14.988 1.01867 13.7593 0.634718 12.4795 0.412881C12.4683 0.412522 12.4571 0.414628 12.4468 0.41905C12.4365 0.423473 12.4273 0.430105 12.4198 0.438478C12.2662 0.72004 12.087 1.08692 11.9676 1.36848C10.6101 1.16371 9.22961 1.16371 7.87214 1.36848C7.75269 1.07839 7.57352 0.72004 7.41141 0.438478C7.40287 0.421413 7.37728 0.412881 7.35168 0.412881C6.07185 0.634718 4.85175 1.01867 3.70844 1.54766C3.69991 1.54766 3.69138 1.55619 3.68284 1.56472C1.36209 5.03732 0.722179 8.41606 1.03787 11.7607C1.03787 11.7777 1.0464 11.7948 1.06347 11.8033C2.59926 12.9296 4.07532 13.6122 5.53433 14.0644C5.55992 14.0729 5.58552 14.0644 5.59405 14.0473C5.93534 13.578 6.2425 13.0832 6.50699 12.5627C6.52406 12.5286 6.50699 12.4944 6.47287 12.4859C5.98653 12.2982 5.52579 12.0764 5.07359 11.8204C5.03946 11.8033 5.03946 11.7521 5.06506 11.7265C5.15891 11.6583 5.25276 11.5815 5.34662 11.5132C5.36368 11.4962 5.38928 11.4962 5.40634 11.5047C8.34141 12.8443 11.5069 12.8443 14.4078 11.5047C14.4249 11.4962 14.4505 11.4962 14.4675 11.5132C14.5614 11.59 14.6552 11.6583 14.7491 11.7351C14.7832 11.7607 14.7832 11.8119 14.7405 11.8289C14.2969 12.0934 13.8276 12.3067 13.3413 12.4944C13.3071 12.503 13.2986 12.5456 13.3071 12.5712C13.5802 13.0917 13.8873 13.5866 14.2201 14.0558C14.2457 14.0644 14.2713 14.0729 14.2969 14.0644C15.7644 13.6122 17.2405 12.9296 18.7763 11.8033C18.7933 11.7948 18.8019 11.7777 18.8019 11.7607C19.1773 7.8956 18.179 4.54245 16.1569 1.56472C16.1484 1.55619 16.1398 1.54766 16.1228 1.54766ZM6.95067 9.72149C6.07185 9.72149 5.33809 8.91093 5.33809 7.91266C5.33809 6.9144 6.05479 6.10384 6.95067 6.10384C7.85508 6.10384 8.57178 6.92293 8.56325 7.91266C8.56325 8.91093 7.84655 9.72149 6.95067 9.72149ZM12.8976 9.72149C12.0188 9.72149 11.285 8.91093 11.285 7.91266C11.285 6.9144 12.0017 6.10384 12.8976 6.10384C13.802 6.10384 14.5187 6.92293 14.5102 7.91266C14.5102 8.91093 13.802 9.72149 12.8976 9.72149Z" fill="#000"/>
</svg>
