<svg width="16" height="19" viewBox="0 0 16 19" fill="none" xmlns="http://www.w3.org/2000/svg">
<path d="M14.8444 4.03485C14.7751 3.94289 14.701 3.85461 14.6225 3.77035C14.7015 3.55999 14.7614 3.34297 14.8017 3.12191C14.9206 2.31323 14.8173 1.48744 14.5031 0.732899C14.5031 0.732899 13.5475 0.434273 11.3547 1.91034C10.4238 1.6533 9.46218 1.52413 8.49642 1.52639C7.52789 1.52469 6.56356 1.65384 5.62961 1.91034C3.43684 0.417209 2.48124 0.732899 2.48124 0.732899C2.17073 1.47945 2.06756 2.29599 2.18261 3.09631C2.22309 3.32657 2.28596 3.55232 2.37032 3.77035C2.29353 3.85568 2.21674 3.94953 2.14848 4.03485C1.5118 4.83348 1.17382 5.82929 1.19288 6.85047C1.19085 7.09266 1.20225 7.33478 1.22701 7.5757C1.50004 11.3555 4.01703 12.2343 6.41457 12.5073C6.07523 12.8229 5.84513 13.2382 5.75759 13.6933C5.67829 13.9968 5.64097 14.3097 5.64667 14.6233V15.741C4.69192 15.8263 3.71243 15.6872 3.40868 14.8357C3.08263 14.0207 2.54187 13.3092 1.84388 12.7769C1.79287 12.7493 1.74434 12.7173 1.69883 12.6814C1.63754 12.5203 1.52895 12.3815 1.38733 12.2833C1.24571 12.1851 1.07769 12.132 0.905342 12.131H0.901076C0.675526 12.131 0.459151 12.2203 0.299264 12.3794C0.139376 12.5385 0.0489864 12.7544 0.0478586 12.98C0.045299 13.6728 0.738965 14.1207 1.02309 14.2726C1.35503 14.6071 1.62206 15.0003 1.81061 15.4321C2.12118 16.305 3.02985 17.6317 5.62108 17.4594L5.62278 17.543L5.6262 17.7717C5.6262 17.9979 5.71609 18.215 5.8761 18.375C6.03611 18.535 6.25313 18.6249 6.47941 18.6249H10.5015C10.7278 18.6249 10.9448 18.535 11.1048 18.375C11.2648 18.215 11.3547 17.9979 11.3547 17.7717C11.3547 17.7717 11.3615 15.0755 11.3615 14.6233C11.3672 14.3097 11.3299 13.9968 11.2506 13.6933L11.2489 13.6882L11.2523 13.6933C11.2446 13.6634 11.2335 13.6395 11.225 13.6105C11.1299 13.1878 10.91 12.8034 10.5936 12.5073L10.6039 12.5252L10.5868 12.5082C12.9843 12.2351 15.4843 11.3392 15.7573 7.57656C15.7821 7.33563 15.7935 7.09351 15.7914 6.85132C15.8066 5.83216 15.4724 4.83854 14.8444 4.03571V4.03485Z" fill="#000"/>
</svg>
