<svg width="37" height="37" viewBox="0 0 37 37" fill="none" xmlns="http://www.w3.org/2000/svg">
<path d="M27.4821 12.6425C26.8251 12.9411 26.117 13.1373 25.3832 13.2312C26.134 12.779 26.7142 12.0623 26.9873 11.2005C26.2791 11.6271 25.4941 11.9258 24.6665 12.0964C23.9925 11.3626 23.0454 10.936 21.9703 10.936C19.9653 10.936 18.3271 12.5742 18.3271 14.5963C18.3271 14.8864 18.3612 15.168 18.421 15.4325C15.3835 15.2789 12.6788 13.8199 10.8785 11.6101C10.5628 12.1476 10.3836 12.779 10.3836 13.4445C10.3836 14.7158 11.0236 15.842 12.0133 16.4819C11.4075 16.4819 10.8444 16.3113 10.3495 16.0553V16.0809C10.3495 17.8556 11.6123 19.3402 13.2846 19.673C12.7477 19.8199 12.184 19.8404 11.6379 19.7327C11.8696 20.4601 12.3235 21.0965 12.9356 21.5526C13.5478 22.0086 14.2875 22.2614 15.0507 22.2753C13.757 23.2995 12.1532 23.8532 10.5031 23.8452C10.213 23.8452 9.92291 23.8282 9.63281 23.794C11.2539 24.8349 13.1822 25.4407 15.247 25.4407C21.9703 25.4407 25.6648 19.8607 25.6648 15.0229C25.6648 14.8608 25.6648 14.7073 25.6562 14.5451C26.3729 14.0332 26.9873 13.3848 27.4821 12.6425Z" fill="white"/>
<circle cx="18.2375" cy="18.7214" r="17.7375" stroke="white"/>
</svg>
