<svg width="37" height="37" viewBox="0 0 37 37" fill="none" xmlns="http://www.w3.org/2000/svg">
<path d="M25.7445 13.8376C25.6752 13.7457 25.6012 13.6574 25.5227 13.5731C25.6016 13.3628 25.6616 13.1458 25.7018 12.9247C25.8207 12.116 25.7175 11.2902 25.4032 10.5357C25.4032 10.5357 24.4476 10.2371 22.2548 11.7131C21.3239 11.4561 20.3623 11.3269 19.3966 11.3292C18.428 11.3275 17.4637 11.4566 16.5298 11.7131C14.337 10.22 13.3814 10.5357 13.3814 10.5357C13.0709 11.2822 12.9677 12.0988 13.0828 12.8991C13.1232 13.1294 13.1861 13.3551 13.2705 13.5731C13.1937 13.6585 13.1169 13.7523 13.0486 13.8376C12.4119 14.6363 12.074 15.6321 12.093 16.6533C12.091 16.8955 12.1024 17.1376 12.1272 17.3785C12.4002 21.1583 14.9172 22.0371 17.3147 22.3101C16.9754 22.6257 16.7453 23.041 16.6577 23.4961C16.5784 23.7995 16.5411 24.1125 16.5468 24.4261V25.5438C15.5921 25.6291 14.6126 25.49 14.3088 24.6385C13.9828 23.8235 13.442 23.112 12.744 22.5797C12.693 22.5521 12.6445 22.5201 12.599 22.4842C12.5377 22.3231 12.4291 22.1843 12.2875 22.0861C12.1459 21.9879 11.9778 21.9348 11.8055 21.9338H11.8012C11.5757 21.9338 11.3593 22.0231 11.1994 22.1822C11.0395 22.3413 10.9491 22.5572 10.948 22.7828C10.9454 23.4756 11.6391 23.9235 11.9232 24.0754C12.2552 24.4099 12.5222 24.8031 12.7108 25.2349C13.0213 26.1078 13.93 27.4345 16.5212 27.2622L16.5229 27.3458L16.5263 27.5745C16.5263 27.8007 16.6162 28.0178 16.7762 28.1778C16.9363 28.3378 17.1533 28.4277 17.3796 28.4277H21.4016C21.6279 28.4277 21.8449 28.3378 22.0049 28.1778C22.165 28.0178 22.2548 27.8007 22.2548 27.5745C22.2548 27.5745 22.2617 24.8783 22.2617 24.4261C22.2674 24.1125 22.23 23.7996 22.1508 23.4961L22.149 23.491L22.1525 23.4961C22.1448 23.4662 22.1337 23.4423 22.1252 23.4133C22.0301 22.9906 21.8101 22.6062 21.4938 22.3101L21.504 22.328L21.4869 22.311C23.8845 22.0379 26.3844 21.142 26.6574 17.3794C26.6822 17.1384 26.6936 16.8963 26.6916 16.6541C26.7067 15.635 26.3725 14.6413 25.7445 13.8385V13.8376Z" fill="white"/>
<circle cx="18.5" cy="18.7214" r="17.7375" stroke="white"/>
</svg>
