<svg width="38" height="37" viewBox="0 0 38 37" fill="none" xmlns="http://www.w3.org/2000/svg">
<path d="M25.3916 12.71C24.2568 12.181 23.0281 11.7971 21.7483 11.5752C21.7371 11.5749 21.7259 11.577 21.7156 11.5814C21.7053 11.5858 21.6961 11.5925 21.6886 11.6008C21.535 11.8824 21.3558 12.2493 21.2364 12.5308C19.8789 12.3261 18.4984 12.3261 17.1409 12.5308C17.0215 12.2407 16.8423 11.8824 16.6802 11.6008C16.6717 11.5838 16.6461 11.5752 16.6205 11.5752C15.3407 11.7971 14.1206 12.181 12.9772 12.71C12.9687 12.71 12.9602 12.7185 12.9516 12.7271C10.6309 16.1997 9.99098 19.5784 10.3067 22.923C10.3067 22.9401 10.3152 22.9572 10.3323 22.9657C11.8681 24.0919 13.3441 24.7745 14.8031 25.2267C14.8287 25.2353 14.8543 25.2267 14.8629 25.2097C15.2041 24.7404 15.5113 24.2455 15.7758 23.7251C15.7929 23.6909 15.7758 23.6568 15.7417 23.6483C15.2553 23.4606 14.7946 23.2387 14.3424 22.9828C14.3083 22.9657 14.3083 22.9145 14.3339 22.8889C14.4277 22.8206 14.5216 22.7439 14.6154 22.6756C14.6325 22.6585 14.6581 22.6585 14.6751 22.6671C17.6102 24.0066 20.7756 24.0066 23.6766 22.6671C23.6937 22.6585 23.7192 22.6585 23.7363 22.6756C23.8302 22.7524 23.924 22.8206 24.0179 22.8974C24.052 22.923 24.052 22.9742 24.0093 22.9913C23.5657 23.2558 23.0964 23.4691 22.6101 23.6568C22.5759 23.6653 22.5674 23.708 22.5759 23.7336C22.849 24.254 23.1561 24.7489 23.4889 25.2182C23.5145 25.2267 23.5401 25.2353 23.5657 25.2267C25.0332 24.7745 26.5093 24.0919 28.0451 22.9657C28.0621 22.9572 28.0707 22.9401 28.0707 22.923C28.4461 19.058 27.4478 15.7048 25.4257 12.7271C25.4172 12.7185 25.4086 12.71 25.3916 12.71ZM16.2195 20.8838C15.3407 20.8838 14.6069 20.0733 14.6069 19.075C14.6069 18.0768 15.3236 17.2662 16.2195 17.2662C17.1239 17.2662 17.8406 18.0853 17.832 19.075C17.832 20.0733 17.1153 20.8838 16.2195 20.8838ZM22.1664 20.8838C21.2876 20.8838 20.5538 20.0733 20.5538 19.075C20.5538 18.0768 21.2705 17.2662 22.1664 17.2662C23.0708 17.2662 23.7875 18.0853 23.779 19.075C23.779 20.0733 23.0708 20.8838 22.1664 20.8838Z" fill="white"/>
<circle cx="18.8688" cy="18.7214" r="17.7375" stroke="white"/>
</svg>
