<svg width="37" height="37" viewBox="0 0 37 37" fill="none" xmlns="http://www.w3.org/2000/svg">
<circle cx="18.7627" cy="18.7214" r="17.7375" stroke="white"/>
<g clip-path="url(#clip0_185_264)">
<path d="M27.6873 12.2006L29.3212 10.6376V10.2954H23.661L19.627 20.3361L15.0375 10.2954H9.10252V10.6376L11.0112 12.9353C11.1972 13.1051 11.2944 13.3533 11.2697 13.6033V22.6329C11.3286 22.958 11.2228 23.2925 10.9941 23.5288L8.84399 26.1345V26.4724H14.9402V26.1303L12.7901 23.5288C12.5572 23.2916 12.4471 22.9631 12.4941 22.6329V14.8226L17.8454 26.4767H18.4674L23.0688 14.8226V24.1064C23.0688 24.3513 23.0688 24.4017 22.9084 24.5621L21.2532 26.1636V26.5065H29.2837V26.1644L27.6882 24.6022C27.5482 24.4964 27.4757 24.3189 27.5056 24.1465V12.6563C27.4757 12.4831 27.5474 12.3056 27.6873 12.2006Z" fill="white"/>
</g>
<defs>
<clipPath id="clip0_185_264">
<rect width="20.4772" height="20.4772" fill="white" transform="translate(8.84399 8.1626)"/>
</clipPath>
</defs>
</svg>
