<svg width="20" height="16" viewBox="0 0 20 16" fill="none" xmlns="http://www.w3.org/2000/svg">
<path d="M17.6866 2.6444L19.1612 1.23376V0.924988H14.053L10.4124 9.98635L6.27058 0.924988H0.914462V1.23376L2.63695 3.30737C2.80481 3.4606 2.89259 3.68467 2.87026 3.91028V12.0592C2.92339 12.3526 2.82791 12.6544 2.62155 12.8677L0.681152 15.2193V15.5242H6.1828V15.2154L4.2424 12.8677C4.03219 12.6536 3.93286 12.3572 3.97521 12.0592V5.01061L8.80465 15.528H9.36598L13.5186 5.01061V13.389C13.5186 13.61 13.5186 13.6554 13.3738 13.8002L11.88 15.2454V15.555H19.1273V15.2462L17.6874 13.8363C17.5611 13.7409 17.4956 13.5807 17.5226 13.4252V3.05558C17.4956 2.89927 17.5603 2.73911 17.6866 2.6444Z" fill="#000"/>
</svg>
