<svg width="19" height="15" viewBox="0 0 19 15" fill="none" xmlns="http://www.w3.org/2000/svg">
<path d="M18.1633 2.11928C17.5063 2.4179 16.7981 2.61414 16.0644 2.708C16.8152 2.25579 17.3954 1.53909 17.6684 0.677339C16.9602 1.10395 16.1753 1.40257 15.3477 1.57322C14.6736 0.839451 13.7265 0.412842 12.6515 0.412842C10.6464 0.412842 9.00825 2.05102 9.00825 4.07315C9.00825 4.36324 9.04238 4.6448 9.10211 4.9093C6.06465 4.75572 3.35995 3.29672 1.55966 1.08688C1.24397 1.62441 1.0648 2.25579 1.0648 2.9213C1.0648 4.1926 1.70471 5.31884 2.69444 5.95876C2.08866 5.95876 1.52553 5.78811 1.03067 5.53215V5.55774C1.03067 7.33244 2.29343 8.81703 3.96574 9.14979C3.42883 9.29672 2.86517 9.31717 2.31903 9.20952C2.55077 9.93687 3.00462 10.5733 3.61678 11.0294C4.22895 11.4854 4.96865 11.7382 5.7319 11.7521C4.4381 12.7763 2.83437 13.33 1.18425 13.322C0.894153 13.322 0.604059 13.305 0.313965 13.2708C1.93508 14.3118 3.86335 14.9175 5.92814 14.9175C12.6515 14.9175 16.3459 9.3375 16.3459 4.49975C16.3459 4.33764 16.3459 4.18406 16.3374 4.02195C17.0541 3.51002 17.6684 2.86158 18.1633 2.11928Z" fill="#000"/>
</svg>
