<svg width="35" height="17" viewBox="0 0 35 17" fill="none" xmlns="http://www.w3.org/2000/svg">
<path fill-rule="evenodd" clip-rule="evenodd" d="M25.4466 1.04725C25.6863 0.807843 26.0112 0.67337 26.35 0.67337C26.6888 0.67337 27.0137 0.807843 27.2534 1.04725L33.6455 7.43937C33.8849 7.67908 34.0194 8.00401 34.0194 8.34279C34.0194 8.68158 33.8849 9.00651 33.6455 9.24621L27.2534 15.6383C27.1364 15.7639 26.9952 15.8647 26.8384 15.9346C26.6816 16.0044 26.5123 16.042 26.3406 16.045C26.169 16.0481 25.9985 16.0165 25.8393 15.9522C25.6801 15.8879 25.5355 15.7922 25.4141 15.6708C25.2927 15.5494 25.197 15.4048 25.1327 15.2456C25.0684 15.0864 25.0368 14.9159 25.0399 14.7443C25.0429 14.5726 25.0805 14.4033 25.1503 14.2465C25.2202 14.0897 25.321 13.9485 25.4466 13.8315L29.6568 9.62122H2.05992C1.72086 9.62122 1.39569 9.48653 1.15594 9.24677C0.916185 9.00702 0.781494 8.68185 0.781494 8.34279C0.781494 8.00373 0.916185 7.67856 1.15594 7.43881C1.39569 7.19906 1.72086 7.06437 2.05992 7.06437H29.6568L25.4466 2.85409C25.2072 2.61438 25.0727 2.28945 25.0727 1.95067C25.0727 1.61189 25.2072 1.28695 25.4466 1.04725Z" fill="#23A455"/>
</svg>
