<svg width="32" height="26" viewBox="0 0 32 26" fill="none" xmlns="http://www.w3.org/2000/svg">
<path d="M2.91863 0H18.0028V9.04459C18.0028 9.81924 17.6951 10.5622 17.1473 11.1099C16.5996 11.6577 15.8566 11.9654 15.082 11.9654H0V2.92082C-2.17058e-07 2.14655 0.307428 1.40396 0.854716 0.856262C1.402 0.308564 2.14436 0.000579761 2.91863 0Z" fill="#23A455"/>
<path d="M16.9159 14.0256H32.0001V23.0702C32.0001 23.8449 31.6924 24.5878 31.1446 25.1356C30.5969 25.6833 29.8539 25.9911 29.0793 25.9911H13.9973V16.9465C13.9973 16.1722 14.3047 15.4296 14.852 14.8819C15.3993 14.3342 16.1417 14.0262 16.9159 14.0256Z" fill="#23A455"/>
<path d="M20.0347 0H29.0793C29.8539 0 30.5968 0.307728 31.1446 0.855488C31.6924 1.40325 32.0001 2.14617 32.0001 2.92082V11.9654H22.9555C22.5719 11.9654 22.1921 11.8899 21.8377 11.7431C21.4834 11.5963 21.1614 11.3812 20.8902 11.1099C20.6189 10.8387 20.4038 10.5167 20.257 10.1623C20.1102 9.80797 20.0347 9.42816 20.0347 9.04459V0Z" fill="#23A455"/>
<path d="M0 14.0256H9.0446C9.42816 14.0256 9.80797 14.1012 10.1623 14.248C10.5167 14.3948 10.8387 14.6099 11.1099 14.8811C11.3812 15.1523 11.5963 15.4743 11.7431 15.8287C11.8899 16.1831 11.9654 16.5629 11.9654 16.9465V25.9911H2.91863C2.14436 25.9905 1.402 25.6825 0.854716 25.1348C0.307428 24.5871 -2.17058e-07 23.8445 0 23.0702V14.0256Z" fill="#23A455"/>
</svg>
